<svg xmlns="http://www.w3.org/2000/svg" width="17.988" height="13.966" viewBox="0 0 17.988 13.966"><path fill="#FFF" d="M14.914 1.814C16.111.816 15.816 0 14.257 0H3.731c-1.56 0-1.854.816-.657 1.814l3.742 3.118c1.197.998 3.158.998 4.355 0l3.743-3.118z"/><path fill="#FFF" d="M11.913 7.044A209.809 209.809 0 0 1 9.695 8.88l-.02.013a1.048 1.048 0 0 1-.235.136c-.033.015-.066.034-.1.048a1.18 1.18 0 0 1-.335.059l-.01.001h-.002l-.01-.001a1.216 1.216 0 0 1-.335-.059c-.034-.014-.068-.033-.1-.048a1.07 1.07 0 0 1-.235-.136l-.02-.013c-.022-.012-1.02-.838-2.218-1.836L2.178 3.796C.979 2.798 0 3.257 0 4.816v6.315a2.842 2.842 0 0 0 2.835 2.835h12.318a2.842 2.842 0 0 0 2.835-2.835V4.816c0-1.559-.979-2.018-2.178-1.02l-3.897 3.248z"/></svg>