<svg version="1" xmlns="http://www.w3.org/2000/svg" width="49.945" height="24.007" viewBox="0 0 49.945 24.007"><path d="M1.137 0C.51 0 0 .428 0 1.01v1.981c0 .558.494 1.01 1.139 1.01H48.81c.628 0 1.138-.428 1.138-1.01V1.01c0-.558-.494-1.01-1.138-1.01H1.137zm0 10.003c-.627 0-1.137.428-1.137 1.01v1.98c0 .557.494 1.01 1.139 1.01H48.81c.628 0 1.138-.428 1.138-1.01v-1.98c0-.558-.494-1.01-1.138-1.01H1.137zm0 10.002C.51 20.005 0 20.434 0 21.016v1.981c0 .557.494 1.01 1.139 1.01H48.81c.628 0 1.138-.428 1.138-1.01v-1.981c0-.558-.494-1.011-1.138-1.011H1.137z"/><path d="M1.137 0C.51 0 0 .428 0 1.01v1.981c0 .558.494 1.01 1.139 1.01H48.81c.628 0 1.138-.428 1.138-1.01V1.01c0-.558-.494-1.01-1.138-1.01H1.137zm0 10.003c-.627 0-1.137.428-1.137 1.01v1.98c0 .557.494 1.01 1.139 1.01H48.81c.628 0 1.138-.428 1.138-1.01v-1.98c0-.558-.494-1.01-1.138-1.01H1.137zm0 10.002C.51 20.005 0 20.434 0 21.016v1.981c0 .557.494 1.01 1.139 1.01H48.81c.628 0 1.138-.428 1.138-1.01v-1.981c0-.558-.494-1.011-1.138-1.011H1.137z"/></svg>